<?xml version="1.0" standalone="no"?><!DOCTYPE svg PUBLIC "-//W3C//DTD SVG 1.1//EN" "http://www.w3.org/Graphics/SVG/1.1/DTD/svg11.dtd"><svg t="1649302917446" class="icon" viewBox="0 0 1030 1024" version="1.1" xmlns="http://www.w3.org/2000/svg" p-id="9438" data-spm-anchor-id="a313x.7781069.0.i49" xmlns:xlink="http://www.w3.org/1999/xlink" width="32.1875" height="32"><defs><style type="text/css">@font-face { font-family: feedback-iconfont; src: url("//at.alicdn.com/t/font_1031158_u69w8yhxdu.woff2?t=1630033759944") format("woff2"), url("//at.alicdn.com/t/font_1031158_u69w8yhxdu.woff?t=1630033759944") format("woff"), url("//at.alicdn.com/t/font_1031158_u69w8yhxdu.ttf?t=1630033759944") format("truetype"); }
</style></defs><path d="M510.802806 510.802806m-413.031956 0a413.031956 413.031956 0 1 0 826.063912 0 413.031956 413.031956 0 1 0-826.063912 0Z" fill="#ffffff" p-id="9439" data-spm-anchor-id="a313x.7781069.0.i44" class="selected"></path><path d="M1016.218239 585.627436V440.966485h-127.700702c-9.777085-50.681216-29.73032-97.77085-57.664848-139.074045l90.388153-90.388153-102.360094-102.360094-90.18862 90.388153c-41.303196-27.934528-88.392829-47.688231-139.074045-57.664848v-127.700701H444.957132v127.700701C394.275916 151.644583 347.186282 171.597818 305.883087 199.532346L215.494934 109.144193 113.13484 211.504287l90.388153 90.388153C175.588465 343.195635 155.63523 390.285269 145.858145 440.966485h-127.700702v144.660951h127.700702c9.777085 50.681216 29.73032 97.77085 57.664848 139.074045l-90.388153 90.388153 102.360094 102.360093 90.388153-90.388153c41.303196 27.934528 88.392829 47.688231 139.074045 57.664848v127.700702h144.660951v-127.700702c50.681216-9.777085 97.77085-29.73032 139.074045-57.664848l90.388153 90.388153 102.360093-102.360093-90.388153-90.388153c27.934528-41.303196 47.688231-88.392829 57.664848-139.074045h127.50117zM514.793453 698.363211c-102.160561 0-185.166017-82.805924-185.166017-185.166017 0-102.160561 82.805924-185.166017 185.166017-185.166017 102.160561 0 185.166017 82.805924 185.166017 185.166017S616.954014 698.363211 514.793453 698.363211z" fill="#ffffff" p-id="9440" data-spm-anchor-id="a313x.7781069.0.i41" class="selected"></path><path d="M769.995323 513.197194c0-140.869836-114.332034-255.201871-255.20187-255.201871-140.869836 0-255.201871 114.332034-255.201871 255.201871 0 140.869836 114.332034 255.201871 255.201871 255.201871 140.869836 0 255.201871-114.132502 255.20187-255.201871zM514.793453 698.363211c-102.160561 0-185.166017-82.805924-185.166017-185.166017 0-102.160561 82.805924-185.166017 185.166017-185.166017 102.160561 0 185.166017 82.805924 185.166017 185.166017S616.954014 698.363211 514.793453 698.363211z" fill="#ffffff" p-id="9441" data-spm-anchor-id="a313x.7781069.0.i45" class="selected"></path><path d="M514.793453 780.171473c-147.055339 0-266.774747-119.719408-266.774747-266.774747s119.719408-266.774747 266.774747-266.774746 266.774747 119.719408 266.774747 266.774746S661.848792 780.171473 514.793453 780.171473z m0-510.403741c-134.285269 0-243.429462 109.144193-243.429462 243.429462s109.144193 243.429462 243.429462 243.429462 243.429462-109.144193 243.429462-243.429462c0-134.085737-109.144193-243.429462-243.429462-243.429462z m0 440.367888c-108.545596 0-196.938426-88.392829-196.938426-196.938426 0-108.545596 88.392829-196.938426 196.938426-196.938425 108.545596 0 196.938426 88.392829 196.938425 196.938425 0 108.545596-88.392829 196.938426-196.938425 196.938426z m0-370.332035c-95.575994 0-173.393609 77.817615-173.393609 173.393609 0 95.575994 77.817615 173.393609 173.393609 173.393609 95.575994 0 173.393609-77.817615 173.393609-173.393609 0-95.575994-77.817615-173.393609-173.393609-173.393609z" fill="#2c2c2c" p-id="9442" data-spm-anchor-id="a313x.7781069.0.i46" class=""></path><path d="M514.793453 710.13562c-108.545596 0-196.938426-88.392829-196.938426-196.938426 0-108.545596 88.392829-196.938426 196.938426-196.938425s196.938426 88.392829 196.938425 196.938425c0 108.545596-88.392829 196.938426-196.938425 196.938426z m0-370.332035c-95.575994 0-173.393609 77.817615-173.393609 173.393609 0 95.575994 77.817615 173.393609 173.393609 173.393609s173.393609-77.817615 173.393609-173.393609c0-95.575994-77.817615-173.393609-173.393609-173.393609z" fill="#ffffff" p-id="9443" data-spm-anchor-id="a313x.7781069.0.i47" class="selected"></path><path d="M589.618083 1024H444.957132c-6.385035 0-11.772408-5.187841-11.772409-11.772408v-118.123149c-44.894778-9.777085-87.195635-27.335931-125.90491-52.077943l-83.604053 83.604053c-2.194856 2.194856-5.187841 3.39205-8.180826 3.39205-3.192518 0-5.98597-1.197194-8.180826-3.39205l-102.360094-102.360093c-4.589244-4.589244-4.589244-11.971941 0-16.561185l83.604053-83.604053c-24.742011-38.709275-42.300857-81.010133-52.077942-125.90491H18.157443c-6.385035 0-11.772408-5.187841-11.772408-11.772409V440.966485c0-6.385035 5.187841-11.772408 11.772408-11.772409h118.123149c8.180826-37.512081 21.948558-73.427903 40.704599-106.949337 3.591582-6.385035 7.382697-12.77007 11.373344-18.955573l-83.604053-83.604053c-4.589244-4.589244-4.589244-11.971941 0-16.561185l102.360093-102.360093c4.589244-4.589244 11.971941-4.589244 16.561185 0l83.604053 83.803585c38.709275-24.742011 81.010133-42.300857 125.90491-52.077942V14.166797c0-6.385035 5.187841-11.772408 11.772409-11.772409h144.660951c6.385035 0 11.772408 5.187841 11.772408 11.772409v118.123148c44.894778 9.777085 87.195635 27.335931 125.90491 52.077943l83.604053-83.604053c4.589244-4.589244 11.971941-4.589244 16.561185 0l102.360094 102.360093c2.194856 2.194856 3.39205 5.187841 3.39205 8.180826 0 3.192518-1.197194 5.98597-3.39205 8.180827l-83.803586 83.803585c24.742011 38.709275 42.300857 81.010133 52.077943 125.90491h118.123149c6.385035 0 11.772408 5.187841 11.772408 11.772409v144.660951c0 6.385035-5.187841 11.772408-11.772408 11.772408h-118.123149c-9.777085 44.894778-27.335931 87.195635-52.077943 125.90491l83.604053 83.604053c2.194856 2.194856 3.39205 5.187841 3.39205 8.180827 0 3.192518-1.197194 5.98597-3.39205 8.180826l-102.360093 102.360093c-2.194856 2.194856-5.187841 3.39205-8.180826 3.39205-3.192518 0-5.98597-1.197194-8.180827-3.39205l-83.803585-83.604053c-38.709275 24.742011-81.010133 42.300857-125.90491 52.077943v118.123149c0 6.584567-5.187841 11.772408-11.572876 11.772408z m-133.088075-23.345284h121.315666v-116.127826c0-5.586906 3.990647-10.375682 9.37802-11.572876 48.48636-9.37802 93.979735-28.134061 134.883866-55.869057 4.589244-3.192518 10.774747-2.59392 14.765394 1.396727l82.007794 82.007794 85.798909-85.798909-82.007794-82.007794c-3.990647-3.990647-4.589244-10.17615-1.396727-14.765394 27.535464-40.904131 46.491037-86.197973 55.869057-134.883866 0.997662-5.586906 5.786438-9.37802 11.572876-9.37802h116.127826v-121.315666h-116.127826c-5.586906 0-10.375682-3.990647-11.572876-9.378021-9.37802-48.48636-28.134061-93.979735-55.869057-134.883866-3.192518-4.589244-2.59392-10.774747 1.396727-14.765393l82.007794-82.007795-85.798909-85.798908-82.007794 82.007794c-3.990647 3.990647-10.17615 4.589244-14.765394 1.396726-40.904131-27.535464-86.197973-46.491037-134.883866-55.869057-5.586906-0.997662-9.37802-5.786438-9.37802-11.572876V25.939205h-121.315666v116.127825c0 5.586906-3.990647 10.375682-9.37802 11.572876-48.48636 9.37802-93.979735 28.134061-134.883866 55.869057-4.589244 3.192518-10.774747 2.59392-14.765394-1.396726L215.494934 125.705378l-85.798909 85.798909 82.007794 82.007794c3.990647 3.990647 4.589244 10.17615 1.396727 14.765394-5.586906 8.180826-10.774747 16.760717-15.763056 25.54014-19.155105 34.120031-32.523772 70.833983-40.106001 109.343726-0.997662 5.586906-5.786438 9.37802-11.572876 9.37802H29.73032v121.315666h116.127825c5.586906 0 10.375682 3.990647 11.572876 9.378021 9.37802 48.48636 28.134061 93.979735 55.869057 134.883865 3.192518 4.589244 2.59392 10.774747-1.396726 14.765394L129.696025 815.089634l85.798909 85.798908 82.007794-82.007794c3.990647-3.990647 10.17615-4.589244 14.765394-1.396726 40.904131 27.535464 86.197973 46.491037 134.883866 55.869057 5.586906 0.997662 9.37802 5.786438 9.37802 11.572876v115.728761z" fill="#2c2c2c" p-id="9444" data-spm-anchor-id="a313x.7781069.0.i39" class=""></path><path d="M636.308652 513.197194l-95.376462 55.070928-95.376461 55.070927V403.254871l95.376461 55.070928z" fill="#ffffff" p-id="9445" data-spm-anchor-id="a313x.7781069.0.i43" class="selected"></path><path d="M445.555729 635.111458c-1.995323 0-3.990647-0.598597-5.786438-1.596259-3.591582-1.995323-5.786438-5.98597-5.786438-10.17615V403.254871c0-4.190179 2.194856-7.981294 5.786438-10.176149 3.591582-1.995323 7.981294-1.995323 11.772408 0l190.752923 110.141855c3.591582 1.995323 5.786438 5.98597 5.786438 10.176149 0 4.190179-2.194856 7.981294-5.786438 10.17615l-190.752923 110.141855c-1.995323 0.798129-3.990647 1.396726-5.98597 1.396727z m11.772408-211.70382v179.579112l155.63523-89.789556-155.63523-89.789556z" fill="#2c2c2c" p-id="9446" data-spm-anchor-id="a313x.7781069.0.i48" class=""></path></svg>